<svg xmlns="http://www.w3.org/2000/svg" version="1.1" xmlns:xlink="http://www.w3.org/1999/xlink" width="512" height="512" x="0" y="0" viewBox="0 0 512 512" style="enable-background:new 0 0 512 512" xml:space="preserve" class=""><g><path fill="#2e3b7e" d="M411.93 435.5c11.05 0 20 8.95 20 20s-8.95 20-20 20-20-8.95-20-20 8.95-20 20-20zM76.93 45.5c13.81 0 25 11.19 25 25s-11.19 25-25 25c-13.811 0-25-11.19-25-25s11.189-25 25-25z" opacity="1" data-original="#ffd400" class=""></path><path fill="#2e3b7e" d="M251.93 55.5c-110.46 0-200 89.54-200 200s89.54 200 200 200 200-89.54 200-200-89.54-200-200-200z" opacity="1" data-original="#3f4751" class=""></path><path fill="#ffffff" d="M251.93 105.5c82.84 0 150 67.16 150 150s-67.16 150-150 150-150-67.16-150-150 67.16-150 150-150z" opacity="1" data-original="#bce4ff" class=""></path><path fill="#ff4a4a" d="M312.029 195.4c9.771 9.76 9.771 25.59 0 35.35L287.29 255.5l24.739 24.75c9.771 9.76 9.771 25.59 0 35.35-9.76 9.771-25.59 9.771-35.35 0l-24.75-24.739L227.18 315.6c-9.76 9.771-25.59 9.771-35.351 0-9.77-9.76-9.77-25.59 0-35.35l24.74-24.75-24.74-24.75a24.93 24.93 0 0 1-7.33-17.67c0-6.4 2.45-12.8 7.33-17.68 9.761-9.77 25.591-9.77 35.351 0l24.75 24.74 24.75-24.74a24.93 24.93 0 0 1 17.67-7.33c6.4 0 12.799 2.45 17.679 7.33z" opacity="1" data-original="#d94556" class=""></path><g fill="#94d4ff"><path d="M461.93 115.5c5.52 0 10 4.48 10 10s-4.48 10-10 10-10-4.48-10-10 4.48-10 10-10zM461.93 375.5c5.52 0 10 4.48 10 10s-4.48 10-10 10-10-4.48-10-10 4.48-10 10-10zM391.93 25.5c5.52 0 10 4.48 10 10s-4.48 10-10 10-10-4.48-10-10 4.48-10 10-10zM101.93 455.5c5.52 0 10 4.48 10 10s-4.48 10-10 10c-5.521 0-10-4.48-10-10s4.479-10 10-10zM41.93 125.5c5.52 0 10 4.48 10 10s-4.48 10-10 10c-5.521 0-10-4.48-10-10s4.479-10 10-10zM41.93 375.5c5.52 0 10 4.48 10 10s-4.48 10-10 10c-5.521 0-10-4.48-10-10s4.479-10 10-10z" fill="#2e3b7e" opacity="1" data-original="#94d4ff" class=""></path></g></g></svg>