<svg xmlns="http://www.w3.org/2000/svg" version="1.1" xmlns:xlink="http://www.w3.org/1999/xlink" width="512" height="512" x="0" y="0" viewBox="0 0 152 152" style="enable-background:new 0 0 512 512" xml:space="preserve" class=""><g><linearGradient id="a" x1="76" x2="76" y2="152" gradientUnits="userSpaceOnUse"><stop stop-opacity="1" stop-color="#09f9d1" offset="0"></stop><stop stop-opacity="1" stop-color="#141515" offset="1"></stop></linearGradient><g data-name="Layer 2"><g data-name="05.exam_Check"><circle cx="76" cy="76" r="76" fill="url(#a)" opacity="1" data-original="url(#a)" class=""></circle><g fill="#fff"><path d="M84.7 45.06v6.87H60.31v-6.87a1.93 1.93 0 0 1 1.94-1.93h4.16a6.22 6.22 0 0 1 10.52-3.31 6.29 6.29 0 0 1 1.73 3.31h4.1a1.93 1.93 0 0 1 1.94 1.93z" fill="#ffffff" opacity="1" data-original="#ffffff"></path><path d="M95.33 49h-7.26v6.3H56.94V49h-7a5 5 0 0 0-5 5v52.13a5 5 0 0 0 5 5h31.84a15.86 15.86 0 0 1 18.53-24.92V54a5 5 0 0 0-4.98-5zm-9.72 30.1H59.66a2.29 2.29 0 1 1 0-4.57h26a2.29 2.29 0 0 1 0 4.57zm0-9.87H59.66a2.29 2.29 0 1 1 0-4.57h26a2.29 2.29 0 0 1 0 4.57z" fill="#ffffff" opacity="1" data-original="#ffffff"></path><path d="M103.1 91.05a13.44 13.44 0 1 0 0 19 13.44 13.44 0 0 0 0-19zm-2 6.55-8.67 8.67a2 2 0 0 1-2.76 0l-3.59-3.59a2 2 0 0 1 2.76-2.76l2.21 2.21 7.29-7.29a2 2 0 0 1 2.76 2.76z" fill="#ffffff" opacity="1" data-original="#ffffff"></path></g></g></g></g></svg>