<svg xmlns="http://www.w3.org/2000/svg" version="1.1" xmlns:xlink="http://www.w3.org/1999/xlink" width="512" height="512" x="0" y="0" viewBox="0 0 512 512" style="enable-background:new 0 0 512 512" xml:space="preserve" class=""><g><linearGradient id="a" x1="256" x2="256" y1="512" y2="0" gradientUnits="userSpaceOnUse"><stop stop-opacity="1" stop-color="#010101" offset="0"></stop><stop stop-opacity="1" stop-color="#4db3b1" offset="1"></stop></linearGradient><linearGradient id="b" x1="256.296" x2="256.296" y1="452" y2="182" gradientUnits="userSpaceOnUse"><stop stop-opacity="1" stop-color="#ffffff" offset="0"></stop><stop stop-opacity="1" stop-color="#ffffff" offset="1"></stop></linearGradient><path fill="url(#a)" d="M325.896 152c-7.5-7.2-15.601-14.401-24-21.601.599-2.999 1.199-5.7 2.1-8.399 11.699-32.1 57.9-56.3 77.098-62.901 4.801-1.5 8.701-5.7 9.901-10.8 1.201-4.799-.3-10.201-4.2-13.801-3.3-3.6-35.4-34.499-70.499-34.499-24.3 0-47.1 14.7-60 24.899C243.396 14.7 220.596 0 196.296 0c-35.1 0-67.2 30.899-70.499 34.499-3.9 3.6-5.402 9.001-4.2 13.801 1.199 5.099 5.099 9.3 9.9 10.8.899.3 63.6 24.2 77.098 62.901.901 2.699 1.8 5.7 2.1 8.399-8.399 7.2-16.5 14.401-24 21.601C45.097 283.1 36.095 371 55.296 422.899 78.396 485.9 148.297 512 180.395 512h151.802c31.8 0 101.1-26.4 124.499-90 19.2-51.901 10.201-139.801-130.8-270z" opacity="1" data-original="url(#a)" class=""></path><path fill="url(#b)" d="M271.296 303.214v-59.306c17.245 4.235 30 15.335 30 28.092 0 8.291 6.709 15 15 15s15-6.709 15-15c0-28.98-25.809-53.212-60-58.786V197c0-8.291-6.709-15-15-15s-15 6.709-15 15v16.214c-34.191 5.574-60 29.806-60 58.786s25.809 53.212 60 58.786v59.306c-17.245-4.235-30-15.335-30-28.092 0-8.291-6.709-15-15-15s-15 6.709-15 15c0 28.98 25.809 53.212 60 58.786V437c0 8.291 6.709 15 15 15s15-6.709 15-15v-16.214c34.191-5.574 60-29.806 60-58.786s-25.809-53.212-60-58.786zm-60-31.214c0-12.757 12.755-23.857 30-28.092v56.184c-17.245-4.235-30-15.335-30-28.092zm60 118.092v-56.184c17.245 4.235 30 15.335 30 28.092s-12.755 23.857-30 28.092z" opacity="1" data-original="url(#b)"></path></g></svg>