<svg height="512" viewBox="0 0 512 512" width="512" xmlns="http://www.w3.org/2000/svg" xmlns:xlink="http://www.w3.org/1999/xlink"><linearGradient id="linear-gradient" gradientUnits="userSpaceOnUse" x1="537.66" x2="252.1" y1="445.31" y2="-75.61"><stop offset="0" stop-color="#72c493"/><stop offset=".25" stop-color="#68af98"/><stop offset=".77" stop-color="#4d79a5"/><stop offset="1" stop-color="#415fab"/></linearGradient><linearGradient id="linear-gradient-2" x1="504.47" x2="218.9" xlink:href="#linear-gradient" y1="463.51" y2="-57.41"/><linearGradient id="linear-gradient-3" x1="446.4" x2="160.83" xlink:href="#linear-gradient" y1="495.34" y2="-25.58"/><linearGradient id="linear-gradient-4" x1="327.61" x2="42.04" xlink:href="#linear-gradient" y1="560.46" y2="39.54"/><linearGradient id="linear-gradient-5" x1="408.16" x2="122.59" xlink:href="#linear-gradient" y1="516.3" y2="-4.61"/><linearGradient id="linear-gradient-6" x1="486.9" x2="201.33" xlink:href="#linear-gradient" y1="473.14" y2="-47.78"/><linearGradient id="linear-gradient-7" x1="302.8" x2="17.24" xlink:href="#linear-gradient" y1="574.06" y2="53.14"/><linearGradient id="linear-gradient-8" x1="371.96" x2="86.39" xlink:href="#linear-gradient" y1="536.15" y2="15.23"/><linearGradient id="linear-gradient-9" x1="456.06" x2="170.5" xlink:href="#linear-gradient" y1="490.04" y2="-30.88"/><linearGradient id="linear-gradient-10" x1="304.48" x2="18.92" xlink:href="#linear-gradient" y1="573.14" y2="52.22"/><linearGradient id="linear-gradient-11" x1="401.24" x2="115.68" xlink:href="#linear-gradient" y1="520.09" y2="-.82"/><linearGradient id="linear-gradient-12" x1="360.29" x2="74.72" xlink:href="#linear-gradient" y1="542.54" y2="21.63"/><linearGradient id="linear-gradient-13" x1="210.65" x2="-74.91" xlink:href="#linear-gradient" y1="624.57" y2="103.66"/><g id="_15_Question" data-name="15 Question"><path d="m324.88 152.08h111.59.71a6 6 0 0 0 3.87-10.25l-136.36-135.09a6 6 0 0 0 -10.23 4.26v110.67a30.45 30.45 0 0 0 30.42 30.41zm-18.42-126.69 115.79 114.69h-97.37a18.44 18.44 0 0 1 -18.42-18.41z" fill="url(#linear-gradient)"/><path d="m424.18 252a79.54 79.54 0 0 0 -77.45 61 25.57 25.57 0 0 0 49.7 12 28.55 28.55 0 0 1 56.32 6.88 29 29 0 0 1 -20.22 27.55l-.41.13a25.44 25.44 0 0 0 -20.89 25.12v36.46a25.58 25.58 0 0 0 51.15 0v-19.14a80.44 80.44 0 0 0 25.62-22.18 80 80 0 0 0 -63.82-127.82zm54.17 120.67a68.49 68.49 0 0 1 -24.61 20.33 6 6 0 0 0 -3.36 5.39v22.76a13.58 13.58 0 0 1 -27.15 0v-36.47a13.49 13.49 0 0 1 11.41-13.37 6.65 6.65 0 0 0 1-.25l.5-.19a40.82 40.82 0 0 0 -12-79.77 40.48 40.48 0 0 0 -39.41 31.07 13.57 13.57 0 0 1 -26.38-6.41 67.74 67.74 0 1 1 120 56.87z" fill="url(#linear-gradient-2)"/><path d="m436.81 448.68a25.61 25.61 0 0 0 -25.58 25.57v7.18a25.58 25.58 0 0 0 51.15 0v-7.18a25.6 25.6 0 0 0 -25.57-25.57zm13.57 32.75a13.58 13.58 0 0 1 -27.15 0v-7.18a13.58 13.58 0 0 1 27.15 0z" fill="url(#linear-gradient-3)"/><path d="m109.69 203.15h37.5a6 6 0 0 0 0-12h-37.5a6 6 0 0 0 0 12z" fill="url(#linear-gradient-4)"/><path d="m189.19 203.15h88a6 6 0 0 0 0-12h-88a6 6 0 0 0 0 12z" fill="url(#linear-gradient-5)"/><path d="m316.14 191.15a6 6 0 0 0 0 12h38.93a6 6 0 0 0 0-12z" fill="url(#linear-gradient-6)"/><path d="m109.69 262h37.5a6 6 0 0 0 0-12h-37.5a6 6 0 0 0 0 12z" fill="url(#linear-gradient-7)"/><path d="m253.58 256a6 6 0 0 0 -6-6h-58.39a6 6 0 0 0 0 12h58.39a6 6 0 0 0 6-6z" fill="url(#linear-gradient-8)"/><path d="m300.46 262h54.61a6 6 0 0 0 0-12h-54.61a6 6 0 0 0 0 12z" fill="url(#linear-gradient-9)"/><path d="m216.09 308.85h-106.4a6 6 0 0 0 0 12h106.4a6 6 0 1 0 0-12z" fill="url(#linear-gradient-10)"/><path d="m322.48 308.85h-67.48a6 6 0 0 0 0 12h67.51a6 6 0 0 0 0-12z" fill="url(#linear-gradient-11)"/><path d="m436.27 140.1h.2-111.58a18.44 18.44 0 0 1 -18.42-18.42v-110.68a6 6 0 0 0 -6-6h-238.53a40 40 0 0 0 -40 40v222.88a6 6 0 0 0 12 0v-222.88a28 28 0 0 1 28-28h232.53v104.66a30.46 30.46 0 0 0 30.42 30.42h105.94v100.16q-3.3-.28-6.65-.28a79.52 79.52 0 0 0 -77.45 61 25.57 25.57 0 0 0 49.7 12.04 28.51 28.51 0 0 1 34.4-21.11v55.95a25.43 25.43 0 0 0 -19.59 24.84v36.46a25.61 25.61 0 0 0 19.59 24.86v3.39a25.61 25.61 0 0 0 -19.59 24.86v7.18a25.63 25.63 0 0 0 2.42 10.86 23.36 23.36 0 0 1 -10.83 2.71h-340.89c-15.44 0-28-15.58-28-34.74v-145.58a6 6 0 0 0 -12 0v145.58c0 25.77 17.94 46.74 40 46.74h340.89a36 36 0 0 0 22.78-8.29 6 6 0 0 0 .81-8.54 13.58 13.58 0 0 1 -3.18-8.74v-7.18a13.59 13.59 0 0 1 13.59-13.57 6 6 0 0 0 6-6v-14a6 6 0 0 0 -6-6 13.59 13.59 0 0 1 -13.57-13.57v-36.43a13.49 13.49 0 0 1 11.4-13.37 7.4 7.4 0 0 0 1-.26l.43-.16c1-.3 1.92-.64 2.94-1a6 6 0 0 0 3.79-5.58v-64.79a6 6 0 0 0 -3.78-5.57 40 40 0 0 0 -14.87-2.85 40.48 40.48 0 0 0 -39.41 31.07 13.57 13.57 0 0 1 -26.38-6.41 67.56 67.56 0 0 1 65.8-51.76 66.37 66.37 0 0 1 11.6 1 6 6 0 0 0 7.05-5.91v-113a6 6 0 0 0 -6.56-6z" fill="url(#linear-gradient-12)"/><path d="m27.94 301.78a6 6 0 0 0 6-6v-9a6 6 0 0 0 -12 0v9a6 6 0 0 0 6 6z" fill="url(#linear-gradient-13)"/></g></svg>